<?xml version="1.0" encoding="UTF-8" standalone="no"?>
<svg
   xmlns:dc="http://purl.org/dc/elements/1.1/"
   xmlns:cc="http://creativecommons.org/ns#"
   xmlns:rdf="http://www.w3.org/1999/02/22-rdf-syntax-ns#"
   xmlns:svg="http://www.w3.org/2000/svg"
   xmlns="http://www.w3.org/2000/svg"
   xmlns:xlink="http://www.w3.org/1999/xlink"
   xmlns:sodipodi="http://sodipodi.sourceforge.net/DTD/sodipodi-0.dtd"
   xmlns:inkscape="http://www.inkscape.org/namespaces/inkscape"
   id="Camada_1"
   data-name="Camada 1"
   viewBox="0 0 256 256"
   version="1.1"
   sodipodi:docname="icon.svg"
   inkscape:version="0.92.5 (2060ec1f9f, 2020-04-08)"
   inkscape:export-filename="/home/mateus/Documentos/TAINACAN/tainacan-extra-viewmodes/wp-repo-assets/icon-128x128.png"
   inkscape:export-xdpi="48"
   inkscape:export-ydpi="48">
  <sodipodi:namedview
     pagecolor="#ffffff"
     bordercolor="#666666"
     borderopacity="1"
     objecttolerance="10"
     gridtolerance="10"
     guidetolerance="10"
     inkscape:pageopacity="0"
     inkscape:pageshadow="2"
     inkscape:window-width="2560"
     inkscape:window-height="1048"
     id="namedview50"
     showgrid="false"
     inkscape:zoom="7.6998054"
     inkscape:cx="43.705524"
     inkscape:cy="143.20678"
     inkscape:window-x="1366"
     inkscape:window-y="0"
     inkscape:window-maximized="1"
     inkscape:current-layer="Camada_1" />
  <metadata
     id="metadata60">
    <rdf:RDF>
      <cc:Work
         rdf:about="">
        <dc:format>image/svg+xml</dc:format>
        <dc:type
           rdf:resource="http://purl.org/dc/dcmitype/StillImage" />
        <dc:title>icon</dc:title>
      </cc:Work>
    </rdf:RDF>
  </metadata>
  <defs
     id="defs7">
    <linearGradient
       inkscape:collect="always"
       id="linearGradient1074">
      <stop
         style="stop-color:#ededed;stop-opacity:1;"
         offset="0"
         id="stop1070" />
      <stop
         style="stop-color:#ededed;stop-opacity:0;"
         offset="1"
         id="stop1072" />
    </linearGradient>
    <style
       id="style2">.cls-1{fill:none;}.cls-2{clip-path:url(#clip-path);}.cls-3{opacity:0.2;}.cls-4{fill:#a4ccd6;}.cls-5{fill:#7db6c4;}.cls-6{fill:#fff;}.cls-7{fill:#56a0b0;}.cls-8{fill:#1f2f56;}</style>
    <clipPath
       id="clip-path">
      <rect
         class="cls-1"
         x="-178"
         y="-626"
         width="1544"
         height="500"
         id="rect4" />
    </clipPath>
    <filter
       inkscape:collect="always"
       style="color-interpolation-filters:sRGB"
       id="filter1085"
       x="-0.012027496"
       width="1.024055"
       y="-0.01197263"
       height="1.0239453">
      <feGaussianBlur
         inkscape:collect="always"
         stdDeviation="0.96483822"
         id="feGaussianBlur1087" />
    </filter>
    <filter
       inkscape:collect="always"
       style="color-interpolation-filters:sRGB"
       id="filter891"
       x="-0.048"
       width="1.096"
       y="-0.048"
       height="1.096">
      <feGaussianBlur
         inkscape:collect="always"
         stdDeviation="3.88396"
         id="feGaussianBlur893" />
    </filter>
    <linearGradient
       inkscape:collect="always"
       xlink:href="#linearGradient1074"
       id="linearGradient1076"
       x1="-223.22624"
       y1="40.74575"
       x2="-11.082591"
       y2="253.77518"
       gradientUnits="userSpaceOnUse" />
  </defs>
  <title
     id="title9">icon</title>
  <rect
     style="fill:url(#linearGradient1076);fill-opacity:1"
     class="cls-6"
     width="256"
     height="256"
     id="rect19"
     x="-256"
     y="0"
     transform="rotate(-90)" />
  <rect
     transform="rotate(-90,11,11)"
     y="30.901001"
     x="-207.26338"
     height="194.198"
     width="194.198"
     id="rect877"
     style="opacity:0.42100004;vector-effect:none;fill:#000000;fill-opacity:1;stroke:none;stroke-width:0.77420706;stroke-linecap:round;stroke-linejoin:miter;stroke-miterlimit:4.0999999;stroke-dasharray:none;stroke-dashoffset:0;stroke-opacity:1;paint-order:normal;filter:url(#filter891)" />
  <g
     id="g1103"
     transform="translate(-4.8828124e-7,-2.164387)">
    <rect
       transform="rotate(-90)"
       y="30.901001"
       x="-227.26338"
       height="194.198"
       width="194.198"
       id="rect860"
       style="opacity:1;vector-effect:none;fill:#243140;fill-opacity:1;stroke:none;stroke-width:0.77420706;stroke-linecap:round;stroke-linejoin:miter;stroke-miterlimit:4.0999999;stroke-dasharray:none;stroke-dashoffset:0;stroke-opacity:1;paint-order:normal" />
    <path
       sodipodi:nodetypes="ccccc"
       inkscape:connector-curvature="0"
       id="rect905"
       d="m 30.901001,227.26339 v -194.197996 0 L 225.099,227.26339 Z"
       style="opacity:1;vector-effect:none;fill:#131529;fill-opacity:0.88405798;stroke:none;stroke-width:0.77420706;stroke-linecap:round;stroke-linejoin:miter;stroke-miterlimit:4.0999999;stroke-dasharray:none;stroke-dashoffset:0;stroke-opacity:1;paint-order:normal" />
    <rect
       transform="scale(-1)"
       style="opacity:1;vector-effect:none;fill:#292e3b;fill-opacity:1;stroke:none;stroke-width:0.70919985;stroke-linecap:round;stroke-linejoin:miter;stroke-miterlimit:4.0999999;stroke-dasharray:none;stroke-dashoffset:0;stroke-opacity:1;paint-order:normal"
       id="rect862"
       width="177.89195"
       height="177.89195"
       x="-216.94597"
       y="-219.11037" />
    <path
       sodipodi:nodetypes="ccccc"
       inkscape:connector-curvature="0"
       id="rect908"
       d="M 216.94597,41.218414 39.054022,219.11036 V 41.218414 Z"
       style="opacity:1;vector-effect:none;fill:#3c4959;fill-opacity:1;stroke:none;stroke-width:0.70919985;stroke-linecap:round;stroke-linejoin:miter;stroke-miterlimit:4.0999999;stroke-dasharray:none;stroke-dashoffset:0;stroke-opacity:1;paint-order:normal" />
    <rect
       style="opacity:1;vector-effect:none;fill:#363636;fill-opacity:1;stroke:none;stroke-width:0.63796407;stroke-linecap:round;stroke-linejoin:miter;stroke-miterlimit:4.0999999;stroke-dasharray:none;stroke-dashoffset:0;stroke-opacity:1;paint-order:normal"
       id="rect1102"
       width="160.38977"
       height="159.65813"
       x="-210.3593"
       y="48.170937"
       transform="rotate(-90)" />
    <rect
       transform="rotate(-90)"
       y="48.170937"
       x="-210.3593"
       height="159.65813"
       width="160.38977"
       id="rect864"
       style="opacity:0.681;vector-effect:none;fill:#bbbbbb;fill-opacity:1;stroke:none;stroke-width:0.63796407;stroke-linecap:round;stroke-linejoin:miter;stroke-miterlimit:4.0999999;stroke-dasharray:none;stroke-dashoffset:0;stroke-opacity:1;paint-order:normal" />
    <rect
       style="opacity:1;vector-effect:none;fill:#fafafa;fill-opacity:1;stroke:none;stroke-width:0.76929998;stroke-linecap:round;stroke-linejoin:miter;stroke-miterlimit:4.0999999;stroke-dasharray:none;stroke-dashoffset:0;stroke-opacity:1;paint-order:normal;filter:url(#filter1085)"
       id="rect1071"
       width="193.40878"
       height="192.5265"
       x="-224.70439"
       y="31.736748"
       transform="matrix(0,-0.81573079,0.81573079,0,23.586459,25.750851)" />
    <path
       inkscape:connector-curvature="0"
       id="path21"
       d="m 133.60367,108.66778 a 105.75301,105.75301 0 0 1 17.74671,6.47951 q 2.5918,1.20952 4.89563,2.50542 c 12.85105,-14.29814 14.27654,-27.689156 5.24841,-36.717291 v 0 c -9.03534,-9.092929 -22.45515,-7.653035 -36.7677,5.255614 q 1.24551,2.231834 2.41183,4.722851 a 105.75301,105.75301 0 0 1 6.46512,17.753896 z"
       class="cls-4"
       style="fill:#a4ccd6;stroke-width:0.71994692" />
    <path
       inkscape:connector-curvature="0"
       id="path23"
       d="m 97.426339,128.67509 a 69.057312,69.057312 0 0 0 -2.937392,19.23699 69.114906,69.114906 0 0 0 19.251383,-2.95899 83.917019,83.917019 0 0 1 -8.63936,-7.78261 83.996211,83.996211 0 0 1 -7.674631,-8.49539 z"
       class="cls-5"
       style="fill:#7db6c4;stroke-width:0.71994692" />
    <path
       inkscape:connector-curvature="0"
       id="path25"
       d="m 108.14634,105.68 a 104.63709,104.63709 0 0 1 13.679,-16.74597 q 1.43989,-1.439892 2.87979,-2.735798 C 115.74179,70.093019 103.94185,64.549428 92.631491,69.826638 v 0 C 80.27,75.586215 77.41901,90.100345 86.612735,109.81249 l 0.244782,0.51837 -0.273586,-0.71995 A 70.317218,70.317218 0 0 1 108.14634,105.68 Z"
       class="cls-4"
       style="fill:#a4ccd6;stroke-width:0.71994692" />
    <path
       inkscape:connector-curvature="0"
       id="path27"
       d="m 156.24601,117.63831 q -1.3031,1.4399 -2.7718,2.91579 a 104.29872,104.29872 0 0 1 -16.88997,13.77977 70.230826,70.230826 0 0 1 -3.91651,21.36803 l -0.71993,-0.27357 0.51834,0.24477 c 19.71936,9.19373 34.22629,6.33553 39.98587,-6.01875 v 0 c 5.24841,-11.28876 -0.2376,-23.0599 -16.206,-32.01604 z"
       class="cls-4"
       style="fill:#a4ccd6;stroke-width:0.71994692" />
    <path
       inkscape:connector-curvature="0"
       id="path29"
       d="m 86.562338,109.60371 0.273575,0.71995 a 71.015567,71.015567 0 0 0 10.590426,18.33704 l 0.115185,-0.39597 A 86.58802,86.58802 0 0 1 108.14634,105.68 70.317218,70.317218 0 0 0 86.562338,109.60371 Z"
       class="cls-5"
       style="fill:#7db6c4;stroke-width:0.71994692" />
    <path
       inkscape:connector-curvature="0"
       id="path31"
       d="M 133.60367,108.66778 A 88.287095,88.287095 0 0 0 108.14634,105.68 86.58802,86.58802 0 0 0 97.541528,128.28632 l -0.115186,0.39598 a 83.996211,83.996211 0 0 0 7.667428,8.49536 83.917019,83.917019 0 0 0 8.63937,7.78263 l 0.40316,-0.11521 a 86.782406,86.782406 0 0 0 22.44076,-10.50403 88.207902,88.207902 0 0 0 -2.97339,-25.6733 z"
       class="cls-7"
       style="fill:#56a0b0;stroke-width:0.71994692" />
    <path
       inkscape:connector-curvature="0"
       id="path33"
       d="m 133.60367,108.66778 a 105.75301,105.75301 0 0 0 -6.47953,-17.746695 q -1.16631,-2.498218 -2.41182,-4.722853 -1.43988,1.288706 -2.87978,2.735798 a 104.63709,104.63709 0 0 0 -13.67899,16.74597 88.287095,88.287095 0 0 1 25.45012,2.98778 z"
       class="cls-5"
       style="fill:#7db6c4;stroke-width:0.71994692" />
    <path
       inkscape:connector-curvature="0"
       id="path35"
       d="m 136.58424,134.34108 a 86.782406,86.782406 0 0 1 -22.44074,10.50403 l -0.40317,0.11521 a 70.950772,70.950772 0 0 0 18.19306,10.47522 v 0 l 0.71995,0.27359 a 70.230826,70.230826 0 0 0 3.9309,-21.36803 z"
       class="cls-5"
       style="fill:#7db6c4;stroke-width:0.71994692" />
    <path
       inkscape:connector-curvature="0"
       id="path37"
       d="m 153.47421,120.5541 q 1.4399,-1.43989 2.7718,-2.91579 v 0 q -2.30383,-1.2887 -4.89563,-2.50541 a 105.75301,105.75301 0 0 0 -17.74671,-6.47952 88.207902,88.207902 0 0 1 2.98057,25.6733 104.29872,104.29872 0 0 0 16.88997,-13.77258 z"
       class="cls-5"
       style="fill:#7db6c4;stroke-width:0.71994692" />
    <path
       inkscape:connector-curvature="0"
       id="path39"
       d="m 104.13624,174.84529 h -3.07417 a 0.12239099,0.12239099 0 0 0 -0.1368,0.11521 v 17.34353 c 0,0.0792 0.0433,0.1152 0.1368,0.1152 h 3.07417 c 0.0863,0 0.13678,-0.0361 0.13678,-0.1152 V 174.9605 c -0.007,-0.0648 -0.0503,-0.10071 -0.13678,-0.11521 z"
       class="cls-8"
       style="fill:#1f2f56;stroke-width:0.71994692" />
    <path
       inkscape:connector-curvature="0"
       id="path41"
       d="m 145.56918,181.27442 a 3.3837507,3.3837507 0 0 1 3.42695,-3.39814 h 4.85966 a 0.1151915,0.1151915 0 0 0 0.13678,-0.1368 v -2.743 c 0,-0.0793 -0.0433,-0.12243 -0.13678,-0.13678 h -4.85966 c -4.31968,0.29517 -5.70916,3.16775 -6.34272,5.52918 v 0 c -0.0504,0.0433 -0.0504,1.64868 -0.0504,3.31177 a 21.684803,21.684803 0 0 0 0.12243,3.47014 6.3571317,6.3571317 0 0 0 6.27072,5.2628 h 4.85965 a 0.1151915,0.1151915 0 0 0 0.13678,-0.13678 v -2.74299 c 0,-0.0793 -0.0433,-0.12244 -0.13678,-0.13679 h -4.83083 a 3.3333543,3.3333543 0 0 1 -3.46296,-3.35496 c 0,-1.4543 0.007,-2.40464 0.007,-4.78765 z"
       class="cls-8"
       style="fill:#1f2f56;stroke-width:0.71994692" />
    <path
       inkscape:connector-curvature="0"
       id="path43"
       d="m 107.67837,174.84529 h 7.91943 c 2.5774,0 5.87476,2.56302 5.87476,5.86036 v 11.58396 a 0.1151915,0.1151915 0 0 1 -0.13677,0.1368 h -3.07418 a 0.1151915,0.1151915 0 0 1 -0.13679,-0.1368 v -10.55442 a 3.8877135,3.8877135 0 0 0 -3.98132,-3.95252 h -3.30455 v 14.50694 a 0.1151915,0.1151915 0 0 1 -0.13679,0.1368 h -3.02379 a 0.1151915,0.1151915 0 0 1 -0.13678,-0.1368 v -17.27872 c 0.0144,-0.12244 0.0575,-0.1656 0.13678,-0.1656 z"
       class="cls-8"
       style="fill:#1f2f56;stroke-width:0.71994692" />
    <path
       inkscape:connector-curvature="0"
       id="path45"
       d="m 73.581693,174.84529 h -5.97556 c -0.05761,0 -0.08639,0 -0.09359,0.0935 v 2.815 a 0.08639364,0.08639364 0 0 0 0.09359,0.0935 h 5.097224 v 14.47093 a 0.08639364,0.08639364 0 0 0 0.09359,0.0935 h 3.153367 a 0.08639364,0.08639364 0 0 0 0.09359,-0.0935 v -15.36364 a 2.5990085,2.5990085 0 0 0 -0.331175,-1.37508 q -0.467973,-0.73432 -2.131049,-0.73432 z"
       class="cls-8"
       style="fill:#1f2f56;stroke-width:0.71994692" />
    <path
       inkscape:connector-curvature="0"
       id="path47"
       d="m 81.141135,174.84529 h -9.164924 v 0.0935 a 1.1375162,1.1375162 0 0 1 0.669549,0.22319 0.98632738,0.98632738 0 0 1 0.359975,0.43196 1.1375162,1.1375162 0 0 1 0.107987,0.45357 2.2318356,2.2318356 0 0 1 0,0.25198 c 0,0.71995 0,1.5479 0,1.5479 h 8.027408 a 0.08639364,0.08639364 0 0 0 0.09359,-0.0935 v -2.81499 c 0,-0.0504 -0.05038,-0.0863 -0.09359,-0.0935 z"
       class="cls-8"
       style="fill:#1f2f56;stroke-width:0.71994692" />
    <path
       inkscape:connector-curvature="0"
       id="path49"
       d="m 174.69105,174.84529 h 7.91941 c 2.57741,0 5.87476,2.56302 5.87476,5.86036 v 11.58396 a 0.1151915,0.1151915 0 0 1 -0.13679,0.1368 h -3.07417 a 0.1151915,0.1151915 0 0 1 -0.1368,-0.1368 v -10.55442 a 3.8877135,3.8877135 0 0 0 -3.9813,-3.95252 h -3.30455 v 14.50694 a 0.1151915,0.1151915 0 0 1 -0.13679,0.1368 h -3.00938 a 0.1151915,0.1151915 0 0 1 -0.13679,-0.1368 v -17.27872 c 0,-0.12244 0.0433,-0.1656 0.12243,-0.1656 z"
       class="cls-8"
       style="fill:#1f2f56;stroke-width:0.71994692" />
    <path
       inkscape:connector-curvature="0"
       id="path51"
       d="m 171.32889,179.38815 a 11.763934,11.763934 0 0 0 -0.20158,-1.67027 3.7149263,3.7149263 0 0 0 -3.87332,-2.87978 h -8.42338 c -0.0793,0 -0.12243,0.0433 -0.13678,0.13678 v 2.743 a 0.1151915,0.1151915 0 0 0 0.13678,0.13678 h 7.91941 a 1.2527076,1.2527076 0 0 1 0,2.49821 c -1.43989,0.19442 -2.87978,0.37438 -3.8373,0.43199 a 5.8963656,5.8963656 0 0 0 -5.75959,5.486 v 0.18718 a 7.0626796,7.0626796 0 0 0 0.53278,2.67102 c 0.83512,1.91503 2.66379,3.28294 5.47877,3.28294 h 8.01303 a 0.1151915,0.1151915 0 0 0 0.13679,-0.1368 v -12.66386 0 c 0.0144,-0.0721 0.0144,-0.144 0.0144,-0.22319 z m -8.30819,10.02166 c -3.84452,0 -3.69333,-5.66597 0,-5.66597 a 17.170735,17.170735 0 0 0 4.96765,-0.47517 v 6.14114 z"
       class="cls-8"
       style="fill:#1f2f56;stroke-width:0.71994692" />
    <path
       inkscape:connector-curvature="0"
       id="path53"
       d="M 98.045486,179.38815 A 11.763934,11.763934 0 0 0 97.8439,177.71788 3.7149263,3.7149263 0 0 0 93.97059,174.8381 h -8.423376 c -0.07923,0 -0.122386,0.0433 -0.136795,0.13678 v 2.743 a 0.1151915,0.1151915 0 0 0 0.136795,0.13678 h 7.91941 a 1.2527076,1.2527076 0 0 1 0,2.49821 c -1.439896,0.19442 -2.879781,0.37438 -3.837315,0.43199 a 5.8963656,5.8963656 0 0 0 -5.759572,5.486 v 0.18718 a 7.0626796,7.0626796 0 0 0 0.532761,2.67102 c 0.835134,1.91503 2.663805,3.28294 5.478793,3.28294 h 8.02741 a 0.1151915,0.1151915 0 0 0 0.136785,-0.1368 v -12.66386 0 c -0.007,-0.0721 0,-0.144 0,-0.22319 z m -8.31538,10.02888 c -3.844525,0 -3.693329,-5.66598 0,-5.66598 a 17.170735,17.170735 0 0 0 4.967628,-0.47519 v 6.14117 z"
       class="cls-8"
       style="fill:#1f2f56;stroke-width:0.71994692" />
    <path
       inkscape:connector-curvature="0"
       id="path55"
       d="m 139.16166,179.38815 a 11.763934,11.763934 0 0 0 -0.2016,-1.67027 3.7149263,3.7149263 0 0 0 -3.87329,-2.87978 h -8.42339 c -0.0792,0 -0.12244,0.0433 -0.13678,0.13678 v 2.743 a 0.1151915,0.1151915 0 0 0 0.13678,0.13678 h 7.91942 a 1.2527076,1.2527076 0 0 1 0,2.49821 c -1.43989,0.19442 -2.87979,0.37438 -3.83733,0.43199 a 5.8963656,5.8963656 0 0 0 -5.75956,5.486 v 0.18718 a 7.0626796,7.0626796 0 0 0 0.53276,2.67102 c 0.83513,1.91503 2.6638,3.28294 5.47879,3.28294 h 8.0202 a 0.1151915,0.1151915 0 0 0 0.13681,-0.1368 v -12.66386 0 c 0.007,-0.0721 0.007,-0.144 0.007,-0.22319 z m -8.30099,10.02888 c -3.84452,0 -3.69332,-5.66598 0,-5.66598 a 17.170735,17.170735 0 0 0 4.96765,-0.47519 v 6.14117 z"
       class="cls-8"
       style="fill:#1f2f56;stroke-width:0.71994692" />
  </g>
</svg>
